# xmcd
#
# Track frame offsets: 
#        150
#        27669
#        48664
#        70254
#        94167
#        119464
#        137806
#        159980
#        177274
#        194850
#        221064
#
# Disc length: 3281 seconds
#
# Revision: 0
# Processed by: cddbd v1.5.2PL0 Copyright (c) Steve Scherf et al.
# Submitted via: ExactAudioCopy v0.99pb4
#
DISCID=ad0ccf0b
DTITLE=Ben E. King - Person To Person 
DYEAR=2003
DGENRE=Soul
TTITLE0=Short Stomp
TTITLE1=Harlem Nocturne
TTITLE2=Let The Good Times Roll
TTITLE3=Young Boy Blues
TTITLE4=Person To Person
TTITLE5=Little Mama
TTITLE6=Under The Boardwalk
TTITLE7=Spanish Harlem
TTITLE8=Stand By Me
TTITLE9=Hallelujah I Love Her So
TTITLE10=There'll Be Some Changes Made
EXTD=
EXTT0=
EXTT1=
EXTT2=
EXTT3=
EXTT4=
EXTT5=
EXTT6=
EXTT7=
EXTT8=
EXTT9=
EXTT10=
PLAYORDER=
